<svg viewBox="0 0 566.9 155.5" xmlns="http://www.w3.org/2000/svg"><path d="m309.1 73.5c6.6-6.9 10.2-15 12.4-24.2-4.7 8.2-10.1 14.2-18.2 19.2a50.1 50.1 0 0 1 -7.7 3.8 114.17 114.17 0 0 1 -1.5-18.4 44.49 44.49 0 0 0 14.1-21.5 52.21 52.21 0 0 1 -13.8 13.1c.4-7 1.1-13.9 2-21a278.6 278.6 0 0 0 -7.3 28.6c-.2 1.3-.4 2.6-.6 3.8-.3-.3-.7-.6-1-.9-6.5-6.8-10.4-15.1-13.8-23.7 1.1 10.1 3 20.2 8.2 29a76.75 76.75 0 0 0 5.5 8.1c-.2 4.6-.2 9.3-.3 13.9-.1 15.7 2.4 31.4 4.4 47.1h18.8c-4.7-15.5-10.1-31-13-47a80.38 80.38 0 0 0 11.8-9.9z" fill="#fff"/><path d="m300.9 130.4c-6.1-29.7-15.9-63.2-4.4-105.9-1 8.3-1.8 16.5-2.1 24.8 6.5-4.9 11-10.3 13.9-17a44.49 44.49 0 0 1 -14.1 21.5 135.16 135.16 0 0 0 2.3 23.8c13.4-7.8 21-16.3 25-28.4-2.3 9.2-5.9 17.3-12.4 24.2a91.43 91.43 0 0 1 -11.6 10c2.8 15.9 8.2 31.5 13 46.9h-9.6zm-13.4-60.9c.1-2.3.3-4.6.5-6.9-7.1-8.4-11.5-17.9-14.1-30.2 1.1 10.1 3 20.2 8.2 29a76 76 0 0 0 5.4 8.1z"/><path d="m454.5 152.3a383.33 383.33 0 0 0 -139.4-34.9c-3.1-7.5-6.2-15.1-8.8-22.7a47.86 47.86 0 1 0 -24.5-.8c-.2 7.8 0 15.6.4 23.4a384.28 384.28 0 0 0 -142 35c-2 .9-.3 3.9 1.7 3a379.61 379.61 0 0 1 140.4-34.6c.1 3.2.3 6.5.5 9.7h8.9c-2-15.7-4.5-31.3-4.4-47.1 0-4.6.1-9.3.3-13.9a95.72 95.72 0 0 1 -5.5-8.1c-5.2-8.9-7-19-8.2-29 3.5 8.6 7.4 16.9 13.8 23.7.3.3.7.6 1 .9.2-1.3.3-2.6.6-3.8a278.6 278.6 0 0 1 7.3-28.6c-.9 7.1-1.6 14-2 21a53.78 53.78 0 0 0 13.8-13.1 44.49 44.49 0 0 1 -14.1 21.5 113.25 113.25 0 0 0 1.5 18.4 61.06 61.06 0 0 0 7.7-3.8c8.1-4.9 13.5-11 18.2-19.2-2.3 9.2-5.9 17.3-12.4 24.2a91.43 91.43 0 0 1 -11.6 10c2.8 15.9 8.2 31.5 13 47h9.9c-1.2-3.2-2.5-6.3-3.8-9.5a377.4 377.4 0 0 1 136.3 34.4c1.7.8 3.5-2.1 1.4-3.1z" fill="#cbd843"/><path d="m15.6 55.1h11.5v7h-11.6v17a5.52 5.52 0 0 0 1.5 4.2 5.68 5.68 0 0 0 4.2 1.5h5.9v8.2h-5.4a23 23 0 0 1 -8.5-1.3 9.57 9.57 0 0 1 -5-4.5 18.91 18.91 0 0 1 -1.7-8.7v-16.3h-6v-7h6v-10.5h9zm27.2 3.6a16 16 0 0 0 -3.2 8.5v-12.1h-7.6v37.4h9.6v-19.5q0-4.95 2.7-7.5a10.51 10.51 0 0 1 7.5-2.6h2.6v-8.3h-1.4c-4.5 0-7.9 1.4-10.2 4.1zm47.7 4.7a21.11 21.11 0 0 1 2.1 9.3v3.4h-28.1a16.74 16.74 0 0 0 1 4 9.63 9.63 0 0 0 3.4 4.3 9.48 9.48 0 0 0 5.8 1.6 10.44 10.44 0 0 0 5.7-1.4 5.92 5.92 0 0 0 2.8-3.5h8.8a16.44 16.44 0 0 1 -3.2 6.8 16.1 16.1 0 0 1 -6 4.5 19.68 19.68 0 0 1 -8.2 1.6 20 20 0 0 1 -8.4-1.7 18 18 0 0 1 -6-4.4 18.35 18.35 0 0 1 -3.6-6.2 21 21 0 0 1 -1.2-7v-1.3a21.76 21.76 0 0 1 1.2-7.2 18.35 18.35 0 0 1 3.6-6.2 17 17 0 0 1 5.9-4.3 18.9 18.9 0 0 1 8.1-1.6 18.47 18.47 0 0 1 10.2 2.7 13.54 13.54 0 0 1 6.1 6.6zm-25 3.9a13.79 13.79 0 0 0 -.8 2.9h18.8a16.81 16.81 0 0 0 -.9-3.2 8.1 8.1 0 0 0 -3.1-3.9 9.71 9.71 0 0 0 -5.3-1.4 10.32 10.32 0 0 0 -5.4 1.4 8.67 8.67 0 0 0 -3.3 4.2zm65.4-3.9a21.11 21.11 0 0 1 2.1 9.3v3.4h-28.1a16.74 16.74 0 0 0 1 4 9.63 9.63 0 0 0 3.4 4.3 9.48 9.48 0 0 0 5.8 1.6 10.44 10.44 0 0 0 5.7-1.4 5.92 5.92 0 0 0 2.8-3.5h8.8a16.44 16.44 0 0 1 -3.2 6.8 16.1 16.1 0 0 1 -6 4.5 19.68 19.68 0 0 1 -8.2 1.6 20 20 0 0 1 -8.4-1.7 18 18 0 0 1 -6-4.4 18.35 18.35 0 0 1 -3.6-6.2 21 21 0 0 1 -1.2-7v-1.3a21.76 21.76 0 0 1 1.2-7.2 18.35 18.35 0 0 1 3.6-6.2 17 17 0 0 1 5.9-4.3 18.9 18.9 0 0 1 8.1-1.6 18.47 18.47 0 0 1 10.2 2.7 14.52 14.52 0 0 1 6.1 6.6zm-25.1 3.9a13.79 13.79 0 0 0 -.8 2.9h18.8a13.6 13.6 0 0 0 -.8-3.2 8.1 8.1 0 0 0 -3.1-3.9 9.71 9.71 0 0 0 -5.3-1.4 10.32 10.32 0 0 0 -5.4 1.4 9.48 9.48 0 0 0 -3.4 4.2zm53.7-13.4h-.4a12.13 12.13 0 0 0 -7.3 2.1 12.3 12.3 0 0 0 -4.1 5.5v-19.3h-9.6v50.3h9.6v-21.7a8.08 8.08 0 0 1 2.2-6 7.45 7.45 0 0 1 5.7-2.3 6.93 6.93 0 0 1 5.3 2.1 7.65 7.65 0 0 1 2 5.7v22.3h9.6v-21.4c0-5.6-1.1-9.9-3.3-12.8s-5.4-4.5-9.7-4.5zm16 1.2v7.2h5.2v30.3h9.6v-37.5zm8.8-4.5c1.9 0 3.3-.5 4.1-1.5a5.32 5.32 0 0 0 1.3-3.8 5.08 5.08 0 0 0 -1.3-3.7 5.25 5.25 0 0 0 -4.1-1.4 5.74 5.74 0 0 0 -4.2 1.4 5.24 5.24 0 0 0 -1.3 3.7 5.49 5.49 0 0 0 1.3 3.8 5.38 5.38 0 0 0 4.2 1.5zm9.1-8.4v7.2h4.7v43.2h9.6v-50.4zm17.7 0v7.2h4.7v43.2h9.6v-50.4zm176.4 31.3c-2.5-2-6-3.2-10.4-3.7l-3.3-.3a10 10 0 0 1 -4.4-1.3 3.17 3.17 0 0 1 -1.3-2.8 3.52 3.52 0 0 1 1.7-3 8 8 0 0 1 4.7-1.2 8.48 8.48 0 0 1 5.2 1.4 4.4 4.4 0 0 1 1.9 3.3h8.6a10.5 10.5 0 0 0 -4.5-8.9c-2.9-2-6.6-3-11.2-3a21.28 21.28 0 0 0 -7.8 1.3 10.89 10.89 0 0 0 -5.3 4 10.44 10.44 0 0 0 -1.9 6.5 9.47 9.47 0 0 0 3.4 7.7c2.3 1.9 5.5 3.1 9.7 3.6l3.3.3a11.74 11.74 0 0 1 5.3 1.4 3.53 3.53 0 0 1 1.6 3 4 4 0 0 1 -2 3.4 10.94 10.94 0 0 1 -5.5 1.2c-2.8 0-4.8-.5-6.1-1.6a5.09 5.09 0 0 1 -2.1-3.5h-8.6a11.22 11.22 0 0 0 4.6 9.1c2.9 2.2 7 3.3 12.1 3.3a22.42 22.42 0 0 0 8.6-1.5 13.72 13.72 0 0 0 5.7-4.2 10.17 10.17 0 0 0 2-6.4 10.48 10.48 0 0 0 -4-8.1zm19.6-29h-9v10.5h-6v7h6v16.3a19.5 19.5 0 0 0 1.7 8.7 9.18 9.18 0 0 0 5 4.5 23 23 0 0 0 8.5 1.3h5.4v-8.2h-5.9a5.52 5.52 0 0 1 -4.2-1.5 5.68 5.68 0 0 1 -1.5-4.2v-17h11.5v-7h-11.5zm39.5 32.6a7.94 7.94 0 0 1 -2.1 5.8 7.31 7.31 0 0 1 -5.4 2.1 6.85 6.85 0 0 1 -5.2-2 7.68 7.68 0 0 1 -1.9-5.5v-22.5h-9.6v21.7c0 5.6 1.2 9.8 3.6 12.7s5.7 4.3 10 4.3h.4a12.46 12.46 0 0 0 7.2-1.9 11.44 11.44 0 0 0 4.3-5.7 15.46 15.46 0 0 0 .7-2.3v8.7h7.6v-37.5h-9.6zm45.2-34.9h9.6v50.3h-7.6v-7.8a6.11 6.11 0 0 1 -.7 1.4 13.4 13.4 0 0 1 -5.6 5.7 15.92 15.92 0 0 1 -7.9 1.9 18.86 18.86 0 0 1 -7.2-1.4 15.4 15.4 0 0 1 -5.7-4.1 18.82 18.82 0 0 1 -3.7-6.1 20.39 20.39 0 0 1 -1.3-7.5v-1.4a20.39 20.39 0 0 1 1.3-7.5 17 17 0 0 1 3.6-6.1 16.59 16.59 0 0 1 5.6-4.1 17.33 17.33 0 0 1 7.3-1.5 15.54 15.54 0 0 1 7.8 1.9 12.94 12.94 0 0 1 4.7 4.6v-18.3zm.3 30a10.19 10.19 0 0 0 -1.4-5.5 9.58 9.58 0 0 0 -3.8-3.4 11.25 11.25 0 0 0 -5.1-1.2 9.84 9.84 0 0 0 -9.2 5.7 13.91 13.91 0 0 0 -1.3 6.3 13.2 13.2 0 0 0 1.4 6.2 10 10 0 0 0 3.8 4.1 9.91 9.91 0 0 0 5.4 1.4 10.23 10.23 0 0 0 9-5 11.85 11.85 0 0 0 1.4-5.8v-2.8zm22.2-21.6c1.9 0 3.3-.5 4.1-1.5a5.32 5.32 0 0 0 1.3-3.8 5.08 5.08 0 0 0 -1.3-3.7 5.25 5.25 0 0 0 -4.1-1.4 5.74 5.74 0 0 0 -4.2 1.4 5.24 5.24 0 0 0 -1.3 3.7 5.49 5.49 0 0 0 1.3 3.8 5.38 5.38 0 0 0 4.2 1.5zm-8.7 4.5v7.2h5.2v30.3h9.6v-37.5zm61.1 18.1v1.4a19.54 19.54 0 0 1 -1.3 7.2 17.86 17.86 0 0 1 -4 6.2 18.05 18.05 0 0 1 -6.4 4.3 21.44 21.44 0 0 1 -8.7 1.6 22.27 22.27 0 0 1 -8.8-1.6 18.73 18.73 0 0 1 -11.7-17.7v-1.4a19.76 19.76 0 0 1 1.4-7.3 18.13 18.13 0 0 1 4.1-6.2 20.57 20.57 0 0 1 6.4-4.3 23 23 0 0 1 8.5-1.6 21.12 21.12 0 0 1 8.5 1.6 18.05 18.05 0 0 1 6.4 4.3 17.86 17.86 0 0 1 4 6.2 16.26 16.26 0 0 1 1.6 7.3zm-9.6.6a13.34 13.34 0 0 0 -1.3-6.1 10.1 10.1 0 0 0 -3.7-4.2 10.93 10.93 0 0 0 -5.8-1.6 9.89 9.89 0 0 0 -5.8 1.6 10.32 10.32 0 0 0 -3.8 4.2 13.34 13.34 0 0 0 -1.3 6.1 12.64 12.64 0 0 0 1.3 6 10.1 10.1 0 0 0 3.7 4.2 11 11 0 0 0 5.9 1.6 10.22 10.22 0 0 0 5.9-1.6 10.75 10.75 0 0 0 3.7-4.2 14 14 0 0 0 1.2-6z" fill="#fff"/></svg>