<svg enable-background="new 0 0 566.9 155.5" viewBox="0 0 566.9 155.5" xmlns="http://www.w3.org/2000/svg"><path d="m309.1 73.5c6.6-6.9 10.2-15 12.4-24.2-4.7 8.2-10.1 14.2-18.2 19.2-2.5 1.5-5 2.8-7.7 3.8-1-6.1-1.5-12.2-1.5-18.4 6.7-5.6 11.6-13.1 14.1-21.5-3.8 5.2-8.4 9.6-13.8 13.1.4-7 1.1-13.9 2-21-2.9 9.4-5.4 18.9-7.3 28.6-.2 1.3-.4 2.6-.6 3.8-.3-.3-.7-.6-1-.9-6.5-6.8-10.4-15.1-13.8-23.7 1.1 10.1 3 20.2 8.2 29 1.7 2.8 3.5 5.5 5.5 8.1-.2 4.6-.2 9.3-.3 13.9-.1 15.7 2.4 31.4 4.4 47.1h18.8c-4.7-15.5-10.1-31-13-47 4.2-2.9 8.2-6.2 11.8-9.9z" fill="#fff"/><path d="m300.9 130.4c-6.1-29.7-15.9-63.2-4.4-105.9-1 8.3-1.8 16.5-2.1 24.8 6.5-4.9 11-10.3 13.9-17-2.5 8.4-7.4 15.9-14.1 21.5.1 8 .8 16 2.3 23.8 13.4-7.8 21-16.3 25-28.4-2.3 9.2-5.9 17.3-12.4 24.2-3.6 3.7-7.5 7-11.6 10 2.8 15.9 8.2 31.5 13 46.9h-9.6zm-13.4-60.9c.1-2.3.3-4.6.5-6.9-7.1-8.4-11.5-17.9-14.1-30.2 1.1 10.1 3 20.2 8.2 29 1.6 2.8 3.4 5.5 5.4 8.1z"/><path d="m454.5 152.3c-43.9-20.3-91.1-32.2-139.4-34.9-3.1-7.5-6.2-15.1-8.8-22.7 25.8-5.9 41.8-31.6 35.9-57.4s-31.6-41.8-57.4-35.9c-25.7 6-41.8 31.6-35.9 57.4 3.9 16.8 16.4 30.2 32.9 35.1-.2 7.8 0 15.6.4 23.4-49.1 2.5-97.3 14.4-142 35-2 .9-.3 3.9 1.7 3 44.2-20.4 91.8-32.2 140.4-34.6.1 3.2.3 6.5.5 9.7h8.9c-2-15.7-4.5-31.3-4.4-47.1 0-4.6.1-9.3.3-13.9-2-2.6-3.8-5.3-5.5-8.1-5.2-8.9-7-19-8.2-29 3.5 8.6 7.4 16.9 13.8 23.7.3.3.7.6 1 .9.2-1.3.3-2.6.6-3.8 1.9-9.7 4.4-19.2 7.3-28.6-.9 7.1-1.6 14-2 21 5.3-3.5 10-7.9 13.8-13.1-2.5 8.4-7.4 15.9-14.1 21.5 0 6.2.5 12.3 1.5 18.4 2.7-1.1 5.2-2.4 7.7-3.8 8.1-4.9 13.5-11 18.2-19.2-2.3 9.2-5.9 17.3-12.4 24.2-3.6 3.7-7.5 7-11.6 10 2.8 15.9 8.2 31.5 13 47h9.9c-1.2-3.2-2.5-6.3-3.8-9.5 47.2 2.8 93.4 14.5 136.3 34.4 1.7.8 3.5-2.1 1.4-3.1z" fill="#cbd843"/><path d="m15.6 55.1h11.5v7h-11.6v17c-.1 1.5.4 3.1 1.5 4.2s2.7 1.6 4.2 1.5h5.9v8.2h-5.4c-2.9.1-5.8-.3-8.5-1.3-2.2-.8-3.9-2.4-5-4.5-1.2-2.7-1.8-5.7-1.7-8.7v-16.3h-6v-7h6v-10.5h9zm27.2 3.6c-1.9 2.5-3 5.4-3.2 8.5v-12.1h-7.6v37.4h9.6v-19.5c0-3.3.9-5.8 2.7-7.5 2.1-1.8 4.8-2.7 7.5-2.6h2.6v-8.3h-1.4c-4.5 0-7.9 1.4-10.2 4.1zm47.7 4.7c1.4 2.9 2.1 6.1 2.1 9.3v3.4h-28.1c.2 1.4.5 2.7 1 4 .7 1.7 1.9 3.2 3.4 4.3 1.7 1.1 3.7 1.7 5.8 1.6 2 .1 4-.4 5.7-1.4 1.4-.8 2.4-2 2.8-3.5h8.8c-.5 2.5-1.6 4.8-3.2 6.8s-3.7 3.5-6 4.5c-2.6 1.1-5.4 1.7-8.2 1.6-2.9 0-5.8-.5-8.4-1.7-2.3-1-4.3-2.5-6-4.4-1.6-1.8-2.8-3.9-3.6-6.2-.8-2.2-1.2-4.6-1.2-7v-1.3c0-2.5.4-4.9 1.2-7.2s2-4.4 3.6-6.2 3.6-3.3 5.9-4.3c2.5-1.1 5.3-1.7 8.1-1.6 3.6-.1 7.1.8 10.2 2.7 2.7 1.4 4.9 3.8 6.1 6.6zm-25 3.9c-.4.9-.6 1.9-.8 2.9h18.8c-.2-1.1-.5-2.2-.9-3.2-.6-1.6-1.7-3-3.1-3.9-1.6-1-3.4-1.5-5.3-1.4-1.9 0-3.8.4-5.4 1.4-1.5 1-2.7 2.5-3.3 4.2zm65.4-3.9c1.4 2.9 2.1 6.1 2.1 9.3v3.4h-28.1c.2 1.4.5 2.7 1 4 .7 1.7 1.9 3.2 3.4 4.3 1.7 1.1 3.7 1.7 5.8 1.6 2 .1 4-.4 5.7-1.4 1.4-.8 2.4-2 2.8-3.5h8.8c-.5 2.5-1.6 4.8-3.2 6.8s-3.7 3.5-6 4.5c-2.6 1.1-5.4 1.7-8.2 1.6-2.9 0-5.8-.5-8.4-1.7-2.3-1-4.3-2.5-6-4.4-1.6-1.8-2.8-3.9-3.6-6.2-.8-2.2-1.2-4.6-1.2-7v-1.3c0-2.5.4-4.9 1.2-7.2s2-4.4 3.6-6.2 3.6-3.3 5.9-4.3c2.5-1.1 5.3-1.7 8.1-1.6 3.6-.1 7.1.8 10.2 2.7 2.7 1.5 4.8 3.8 6.1 6.6zm-25.1 3.9c-.4.9-.6 1.9-.8 2.9h18.8c-.1-1.1-.4-2.2-.8-3.2-.6-1.6-1.7-3-3.1-3.9-1.6-1-3.4-1.5-5.3-1.4-1.9 0-3.8.4-5.4 1.4-1.5 1-2.7 2.5-3.4 4.2zm53.7-13.4h-.4c-2.6-.1-5.2.6-7.3 2.1-1.9 1.4-3.3 3.3-4.1 5.5v-19.3h-9.6v50.3h9.6v-21.7c-.1-2.2.7-4.4 2.2-6s3.6-2.4 5.7-2.3c2-.1 3.9.7 5.3 2.1 1.4 1.5 2.1 3.6 2 5.7v22.3h9.6v-21.4c0-5.6-1.1-9.9-3.3-12.8s-5.4-4.5-9.7-4.5zm16 1.2v7.2h5.2v30.3h9.6v-37.5zm8.8-4.5c1.9 0 3.3-.5 4.1-1.5.9-1 1.4-2.4 1.3-3.8.1-1.4-.4-2.7-1.3-3.7-1.1-1-2.6-1.5-4.1-1.4-1.5-.1-3 .4-4.2 1.4-.9 1-1.4 2.3-1.3 3.7-.1 1.4.4 2.7 1.3 3.8 1.1 1.1 2.6 1.6 4.2 1.5zm9.1-8.4v7.2h4.7v43.2h9.6v-50.4zm17.7 0v7.2h4.7v43.2h9.6v-50.4zm176.4 31.3c-2.5-2-6-3.2-10.4-3.7l-3.3-.3c-1.5-.1-3.1-.5-4.4-1.3-.9-.6-1.4-1.7-1.3-2.8 0-1.2.6-2.4 1.7-3 1.4-.9 3-1.3 4.7-1.2 1.8-.1 3.7.4 5.2 1.4 1.1.8 1.8 2 1.9 3.3h8.6c.1-3.5-1.6-6.9-4.5-8.9s-6.6-3-11.2-3c-2.7-.1-5.3.4-7.8 1.3-2.1.7-4 2.1-5.3 4s-2 4.2-1.9 6.5c-.1 3 1.1 5.8 3.4 7.7s5.5 3.1 9.7 3.6l3.3.3c1.9 0 3.7.5 5.3 1.4 1 .7 1.6 1.8 1.6 3 0 1.4-.8 2.7-2 3.4-1.7.9-3.6 1.3-5.5 1.2-2.8 0-4.8-.5-6.1-1.6-1.2-.8-1.9-2.1-2.1-3.5h-8.6c0 3.6 1.7 7 4.6 9.1 2.9 2.2 7 3.3 12.1 3.3 2.9.1 5.9-.4 8.6-1.5 2.2-.9 4.2-2.3 5.7-4.2 1.4-1.8 2.1-4.1 2-6.4 0-3.2-1.5-6.1-4-8.1zm19.6-29h-9v10.5h-6v7h6v16.3c-.1 3 .5 6 1.7 8.7 1 2.1 2.8 3.7 5 4.5 2.7 1 5.6 1.4 8.5 1.3h5.4v-8.2h-5.9c-1.5.1-3.1-.4-4.2-1.5s-1.6-2.7-1.5-4.2v-17h11.5v-7h-11.5zm39.5 32.6c.1 2.1-.6 4.2-2.1 5.8-1.4 1.4-3.4 2.2-5.4 2.1-1.9.1-3.8-.6-5.2-2-1.3-1.5-2-3.5-1.9-5.5v-22.5h-9.6v21.7c0 5.6 1.2 9.8 3.6 12.7s5.7 4.3 10 4.3h.4c2.5.1 5-.5 7.2-1.9 2-1.4 3.5-3.4 4.3-5.7.3-.7.5-1.5.7-2.3v8.7h7.6v-37.5h-9.6zm45.2-34.9h9.6v50.3h-7.6v-7.8c-.2.5-.4 1-.7 1.4-1.2 2.4-3.2 4.4-5.6 5.7s-5.1 2-7.9 1.9c-2.5 0-4.9-.5-7.2-1.4-2.2-.9-4.1-2.3-5.7-4.1s-2.9-3.8-3.7-6.1c-.9-2.4-1.3-4.9-1.3-7.5v-1.4c0-2.6.4-5.1 1.3-7.5.8-2.3 2-4.3 3.6-6.1 1.6-1.7 3.5-3.1 5.6-4.1 2.3-1 4.8-1.5 7.3-1.5 2.7-.1 5.4.6 7.8 1.9 1.9 1.1 3.6 2.7 4.7 4.6v-18.3zm.3 30c.1-1.9-.4-3.8-1.4-5.5-.9-1.5-2.2-2.6-3.8-3.4s-3.3-1.2-5.1-1.2c-3.9-.1-7.5 2.1-9.2 5.7-.9 2-1.4 4.1-1.3 6.3 0 2.1.4 4.3 1.4 6.2.9 1.7 2.2 3.1 3.8 4.1s3.5 1.5 5.4 1.4c3.7.1 7.1-1.8 9-5 1-1.8 1.4-3.8 1.4-5.8v-2.8zm22.2-21.6c1.9 0 3.3-.5 4.1-1.5.9-1 1.4-2.4 1.3-3.8.1-1.4-.4-2.7-1.3-3.7-1.1-1-2.6-1.5-4.1-1.4-1.5-.1-3 .4-4.2 1.4-.9 1-1.4 2.3-1.3 3.7-.1 1.4.4 2.7 1.3 3.8 1.1 1.1 2.6 1.6 4.2 1.5zm-8.7 4.5v7.2h5.2v30.3h9.6v-37.5zm61.1 18.1v1.4c0 2.5-.4 4.9-1.3 7.2s-2.2 4.4-4 6.2c-1.8 1.9-4 3.3-6.4 4.3-2.8 1.1-5.7 1.7-8.7 1.6-3 .1-6-.5-8.8-1.6-7.2-2.9-11.8-9.9-11.7-17.7v-1.4c0-2.5.5-5 1.4-7.3s2.3-4.4 4.1-6.2 4-3.3 6.4-4.3c2.7-1.1 5.6-1.6 8.5-1.6 2.9-.1 5.8.5 8.5 1.6 2.4 1 4.6 2.4 6.4 4.3 1.8 1.8 3.1 3.9 4 6.2 1.1 2.3 1.6 4.8 1.6 7.3zm-9.6.6c.1-2.1-.4-4.2-1.3-6.1-.8-1.7-2.1-3.2-3.7-4.2-1.7-1.1-3.8-1.6-5.8-1.6-2.1-.1-4.1.5-5.8 1.6-1.6 1-2.9 2.5-3.8 4.2-.9 1.9-1.4 4-1.3 6.1-.1 2.1.4 4.1 1.3 6 .8 1.7 2.1 3.2 3.7 4.2 1.8 1.1 3.8 1.6 5.9 1.6 2.1.1 4.1-.5 5.9-1.6 1.6-1 2.9-2.5 3.7-4.2.8-1.9 1.2-3.9 1.2-6z"/></svg>