<svg viewBox="0 0 566.9 566.9" xmlns="http://www.w3.org/2000/svg"><path d="m390.9 566.9c-20.3-51.3-43.1-102.7-61.3-155.2 93-21.1 162.4-103.9 162.4-203.2 0-115.1-93.4-208.5-208.5-208.5s-208.6 93.4-208.6 208.5c0 94.2 62.5 173.6 148.2 199.5-1.3 52.9 1.8 106.1 4.2 158.9z" fill="#cbd843"/><path d="m342.6 319.6c28.7-30 44.3-65.2 53.9-105.2-20.4 35.6-43.9 61.7-79.1 83.5-10.4 6.5-21.7 11.7-33.5 16.5-3.9-26.5-7-53.5-6.5-80 32.2-27 50-58.2 61.3-93.5-17 22.6-35.6 41.3-60 56.9 1.7-30.4 4.8-60.4 8.7-91.3-12.6 41.3-23.5 81.7-31.7 124.3-.9 5.7-1.7 11.3-2.6 16.5-1.3-1.3-3-2.6-4.3-3.9-28.3-29.6-45.2-65.6-60-103 4.8 43.9 13 87.8 35.6 126.1a334.49 334.49 0 0 0 23.9 35.2c-.9 20-.9 40.4-1.3 60.4-.4 68.2 10.4 136.5 19.1 204.7h81.7c-20.4-67.4-43.9-134.8-56.5-204.3a336.31 336.31 0 0 0 51.3-42.9z" fill="#fff"/><path d="m342.6 319.6c28.7-30 44.3-65.2 53.9-105.2-17.6 52.5-50.9 89.5-109.3 123.4-1.2-7.2-2.2-16.2-3.3-23.4-3.9-26.5-7-53.5-6.5-80 32.2-27 50-58.2 61.3-93.5-12.8 28.7-32.4 52.4-60.7 73.5.2-4.6.5-12 .7-16.6 1.7-30.4 4.8-60.4 8.7-91.3-49.7 185.5-7.5 331.5 19 460.3h41.4c-20.4-67.4-43.9-134.8-56.5-204.3a336.31 336.31 0 0 0 51.3-42.9z"/><path d="m188.8 140.6c4.7 43.8 13 87.7 35.6 126a334.49 334.49 0 0 0 23.9 35.2q.6-15.15 2.1-30c-30.9-36.6-50.1-77.8-61.6-131.2z"/></svg>