<svg xmlns="http://www.w3.org/2000/svg" width="416" height="416" viewBox="0 0 416 416" id="github"><path fill="currentColor" d="M207.988,0C93.127,0,0,93.139,0,208.023c0,91.894,59.595,169.854,142.271,197.362c10.389,1.908,14.191-4.514,14.191-10.024	c0-4.938-0.175-18.021-0.274-35.378c-57.861,12.559-70.069-27.896-70.069-27.896c-9.466-24.029-23.096-30.427-23.096-30.427	c-18.892-12.906,1.422-12.646,1.422-12.646c20.889,1.474,31.861,21.448,31.861,21.448c18.555,31.774,48.683,22.608,60.542,17.284	c1.896-13.443,7.271-22.608,13.206-27.81c-46.188-5.25-94.747-23.096-94.747-102.804c0-22.708,8.105-41.274,21.411-55.815	c-2.132-5.262-9.278-26.41,2.045-55.055c0,0,17.471-5.588,57.188,21.323c16.599-4.603,34.394-6.935,52.074-7.009	c17.657,0.074,35.466,2.406,52.075,7.009c39.717-26.911,57.15-21.323,57.15-21.323c11.348,28.631,4.202,49.779,2.058,55.055	c13.331,14.541,21.386,33.107,21.386,55.815c0,79.908-48.646,97.49-94.982,102.642c7.47,6.423,14.128,19.115,14.128,38.521	c0,27.81-0.262,50.242-0.262,57.062c0,5.573,3.739,12.032,14.303,10.001C356.456,377.805,416,299.892,416,208.023	C416.013,93.139,322.874,0,207.988,0z"/></svg>